:SAMPLES-PER-SECOND 30
:FULLY-SPECIFIED
:DEGREES
579
root  -7.31011 34.1508 5.81758 7.22181 32.7627 0.32681
LeftUpLeg  -27.993 15.114 -3.35775
LeftLeg  11.6219 5.19358 0.722009
LeftFoot  10.8906 -0.0939476 0.985514
LeftToes  -20.2698 6.91067e-007 1.07128e-007
Spine  3.88635 1.99494 1.86352
Spine1  7.82709 3.85574 3.84437
RightShoulder  0.0117333 7.51028 5.45688
RightArm  -44.6304 -23.3236 65.2364
RightForeArm  18.0414 21.8684 4.05358
RightHand  1.87709 -10.6594 -19.538
LeftShoulder1  -0.00262237 1.65367 -5.97912
LeftArm  35.4573 38.1024 -44.7093
LeftForeArm  45.4687 -79.8646 -82.1728
LeftHand  -2.53192 30.2207 -9.72556
HEad  -6.14078 10.2502 -7.85001
RightUpLeg  -6.59319 -13.3618 3.88385
RightLeg  8.90332 17.2045 1.5547
RightFoot  -2.29172 -0.0218041 -0.712751
RightToes  -26.3522 -0.119625 -0.22583
580
root  -7.12156 34.0966 6.1338 6.81108 30.8496 -0.307063
LeftUpLeg  -28.7575 15.0148 -2.96369
LeftLeg  10.2879 4.65903 0.537775
LeftFoot  11.7283 -0.0973156 0.947474
LeftToes  -21.409 6.91067e-007 1.07128e-007
Spine  3.87748 1.93718 1.94669
Spine1  7.80457 3.74397 3.99212
RightShoulder  0.0173148 8.91392 5.44045
RightArm  -55.5254 -19.1049 66.5022
RightForeArm  13.0321 16.7329 3.03388
RightHand  2.94948 -11.8849 -27.4005
LeftShoulder1  -0.00204206 1.63184 -5.75754
LeftArm  32.6739 38.8688 -45.7359
LeftForeArm  40.0385 -79.4606 -72.2394
LeftHand  -3.36105 27.5043 -14.0386
HEad  -4.10934 12.3731 -8.32298
RightUpLeg  -6.05393 -12.6969 4.1358
RightLeg  9.32515 18.2863 1.78292
RightFoot  -2.83459 -0.0326058 -0.940488
RightToes  -27.2027 -0.125141 -0.232062
581
root  -6.89734 34.0355 6.49457 6.52712 28.7732 -0.928024
LeftUpLeg  -29.1018 15.6081 -2.71558
LeftLeg  8.68106 5.39779 0.470472
LeftFoot  12.2749 -0.123543 1.14887
LeftToes  -23.41 6.91067e-007 1.07128e-007
Spine  3.87839 1.9975 1.98802
Spine1  7.80369 3.88082 4.05649
RightShoulder  0.0241616 8.83274 4.82852
RightArm  -57.5038 -15.1867 67.8969
RightForeArm  5.54611 13.8744 2.48778
RightHand  3.86716 -14.1793 -29.9902
LeftShoulder1  -0.00142676 1.82565 -5.98561
LeftArm  29.9954 39.107 -46.146
LeftForeArm  34.3874 -78.7526 -63.018
LeftHand  -3.86063 24.7865 -17.805
HEad  -3.37076 14.499 -8.73518
RightUpLeg  -5.63104 -12.2693 4.34221
RightLeg  10.0599 19.7505 2.17132
RightFoot  -3.51024 -0.0503441 -1.26556
RightToes  -28.0091 -0.130454 -0.237893
582
root  -6.64537 33.9716 6.89821 6.47626 26.5978 -1.5367
LeftUpLeg  -29.2306 16.7634 -2.55987
LeftLeg  7.21054 6.83569 0.4197
LeftFoot  12.1399 -0.15345 1.44295
LeftToes  -23.7371 6.91067e-007 1.07128e-007
Spine  3.80995 2.17642 1.94257
Spine1  7.66813 4.26194 3.95542
RightShoulder  0.028205 8.50862 4.24015
RightArm  -55.278 -12.513 69.1314
RightForeArm  4.27351 12.8617 2.29845
RightHand  3.63414 -17.428 -23.01
LeftShoulder1  -0.000775807 2.09854 -6.35262
LeftArm  27.8506 39.0172 -46.1956
LeftForeArm  31.6437 -77.903 -55.8109
LeftHand  -3.91443 22.4463 -19.9077
HEad  -3.73947 16.4322 -8.97942
RightUpLeg  -5.23595 -11.4927 4.53195
RightLeg  10.5956 20.9264 2.48886
RightFoot  -4.19772 -0.0728864 -1.61133
RightToes  -29.453 -0.140172 -0.248146
583
root  -6.35404 33.9054 7.3657 6.63937 24.7705 -2.08294
LeftUpLeg  -29.0904 17.9335 -2.47389
LeftLeg  6.01807 8.45643 0.343068
LeftFoot  11.7685 -0.178976 1.73644
LeftToes  -23.7948 6.91067e-007 1.07128e-007
Spine  3.62676 2.34101 1.78937
Spine1  7.3 4.61848 3.64235
RightShoulder  0.0302609 8.82502 4.09781
RightArm  -52.4573 -11.4364 69.9856
RightForeArm  12.1412 12.9916 2.32828
RightHand  1.55546 -17.6652 -9.61183
LeftShoulder1  -8.85187e-005 2.03182 -6.39426
LeftArm  25.1972 39.0736 -46.6633
LeftForeArm  28.3053 -76.6535 -48.3644
LeftHand  -3.72549 20.3341 -20.9211
HEad  -4.64841 18.0569 -9.07947
RightUpLeg  -4.81663 -11.2863 4.60466
RightLeg  11.0249 22.3685 2.81776
RightFoot  -4.83754 -0.10035 -1.99809
RightToes  -32.0451 -0.158255 -0.265926
